<svg id="レイヤー_1" data-name="レイヤー 1" xmlns="http://www.w3.org/2000/svg" viewBox="0 0 865.56 97.53"><path d="M79.42,28q0,3-4.2,6.3Q79,40,79,44.74c0,.77-.23,1.16-.7,1.16s-.56-.51-.56-1.54a16.75,16.75,0,0,0-3.26-9.46q-6.76,5-18.4,8.69a69.93,69.93,0,0,1-20.64,3.67,19.94,19.94,0,0,1-2.19-.1q-7.47,10.41-7.47,20.06,0,6.57,4.08,10.4c2.73,2.55,6.43,3.83,11.13,3.83q13.29,0,23.69-12.74Q71,61,71,54.11a7.73,7.73,0,0,0-2.19-5.78A8,8,0,0,0,63,46.18q-5.82,0-12.5,6.14T43.83,63.77c0,.31.09.46.28.46a.68.68,0,0,0,.36-.18,3.63,3.63,0,0,1,2.32-1.12c1.57,0,2.36.85,2.36,2.56q0,3.47-3.36,3.46c-2.06,0-3.08-1.25-3.08-3.74q0-6.66,6.76-13.22t13.72-6.55q9,0,9,9.84,0,10.17-9.72,18.54T40.84,82.19A19,19,0,0,1,27,76.64a18.49,18.49,0,0,1-5.62-13.71q0-7.93,5.55-16.28Q6.7,42.91,6.7,30.7q0-7.27,7.51-12.18t18.7-4.89q15.63,0,31.58,10.4a27.84,27.84,0,0,1,5.65-.56Q79.41,23.47,79.42,28ZM63.19,24.21A59.35,59.35,0,0,0,33,16a31.65,31.65,0,0,0-17.28,4.67q-7.39,4.66-7.4,10.91Q8.33,42.74,27.27,46,39,29.62,63.19,24.21Zm11,10a35.37,35.37,0,0,0-9.66-9.19,55,55,0,0,0-17,8.19A55.94,55.94,0,0,0,33.85,46.46,75.56,75.56,0,0,0,55.42,42.9Q67.24,39.32,74.15,34.24ZM78.67,28q0-3.83-7.46-3.83a28.13,28.13,0,0,0-5.55.66,37,37,0,0,1,9.19,8.91Q78.68,30.51,78.67,28Z" transform="translate(-6.7 -13.63)"/><path d="M107.14,65.19q0,1-6.82,9.06-5.5,6.65-8.69,6.64a4.37,4.37,0,0,1-3.5-1.61,6.09,6.09,0,0,1-1.35-4,12.09,12.09,0,0,1,1.49-5.46,63.14,63.14,0,0,1-7.14,8.82,7.27,7.27,0,0,1-4.8,2.29,5.1,5.1,0,0,1-4.15-2.13,8.32,8.32,0,0,1-1.68-5.34q0-9,12.64-15.86,5.55-3.08,9-3.07c1.93,0,2.9.93,2.9,2.79a8.08,8.08,0,0,1-.38,2.1L97,54.86a10.93,10.93,0,0,0,2.47.33,21.08,21.08,0,0,0,3.27-.33L94.47,68.53Q90.18,75.7,90.18,78c0,1.47.61,2.2,1.82,2.2s3.24-1.43,6-4.28a80.16,80.16,0,0,0,8.36-10.53c.19-.31.36-.47.52-.47A.25.25,0,0,1,107.14,65.19ZM94.29,57.47q0-2.28-2.1-2.28-4.31,0-11.27,8.39T74,77.15c0,2,.9,3,2.7,3q3.22,0,11.15-10.69Q94.28,60.74,94.29,57.47Z" transform="translate(-6.7 -13.63)"/><path d="M158.62,65.19a5.51,5.51,0,0,1-.47.75l-2,2.75q-8.79,12.19-13,12.2a4.51,4.51,0,0,1-3.59-1.64,6.17,6.17,0,0,1-1.4-4.19,11.31,11.31,0,0,1,1.77-5.65q.33-.55,3.4-5c2.62-3.73,3.92-6.17,3.92-7.32a1.69,1.69,0,0,0-1.91-1.91q-6.16,0-21.13,25.28a13.26,13.26,0,0,0-2.57-.19,23.36,23.36,0,0,0-3.26.19L125,70q6.48-10.35,6.49-12.69c0-1.4-.58-2.09-1.73-2.09q-2.57,0-8.4,7.36a126.68,126.68,0,0,0-11.56,17.92,16.08,16.08,0,0,0-2.76-.19,22.58,22.58,0,0,0-3.17.19L110.55,70q6.9-10.81,6.91-13.39c0-.93-.36-1.39-1.08-1.39q-2.3,0-9.49,10c-.31.44-.56.65-.74.65s-.19-.12-.19-.28,1.43-2.21,4.3-5.81,5-5.26,6.49-5.26a3.15,3.15,0,0,1,2.57,1.42,5.42,5.42,0,0,1,1.07,3.38c0,1.8-.91,4.31-2.75,7.51q8.4-12.31,12.5-12.31a3.92,3.92,0,0,1,3.22,1.58,6.19,6.19,0,0,1,1.26,4q0,2.66-2.47,6.76Q141,54.49,145.44,54.49a4.16,4.16,0,0,1,3.38,1.72,6.51,6.51,0,0,1,1.38,4.2,13.74,13.74,0,0,1-2.29,6.76s-1.36,2-4,6q-2.28,3.36-2.28,5.13a1.69,1.69,0,0,0,1.91,1.92q3.65,0,12.05-11.78l1.45-2,.84-1c.16-.31.31-.47.47-.47A.24.24,0,0,1,158.62,65.19Z" transform="translate(-6.7 -13.63)"/><path d="M181.74,65.24a5.9,5.9,0,0,1-.84,1.21l-2,2.51q-9.68,11.92-16.58,11.93a7.23,7.23,0,0,1-5.48-2.36,8.27,8.27,0,0,1-2.22-5.9q0-8.4,11.71-14.79,6.15-3.36,10-3.35a4.26,4.26,0,0,1,2.86,1,3.07,3.07,0,0,1,1.19,2.45q0,3.36-4.38,5.71t-14.65,4.41c-2.11,3.2-3.17,5.88-3.17,8,0,2.68,1.45,4,4.34,4q7.38,0,18.07-14.39c.38-.49.69-.74.94-.74S181.74,65.08,181.74,65.24Zm-3.94-8.66c0-1-.54-1.49-1.63-1.49-1.65,0-3.82,1.15-6.51,3.43a48.18,48.18,0,0,0-7.9,8.89,36.43,36.43,0,0,0,11.38-4.88Q177.81,59.38,177.8,56.58Z" transform="translate(-6.7 -13.63)"/><path d="M205.73,32.14Q186.14,64.75,182.9,70.48c-2.16,3.83-3.24,6.36-3.24,7.61s.59,2.1,1.77,2.1q3.93,0,14.39-14.81c.15-.31.34-.47.56-.47a.26.26,0,0,1,.19.28c0,.19-.16.44-.47.75l-2,2.75q-8.82,12.19-13,12.2a4.11,4.11,0,0,1-3.29-1.52,5.72,5.72,0,0,1-1.28-3.85,11.13,11.13,0,0,1,1.18-5q1.2-2.4,8.1-13.87,8.43-14,14.22-24.35a9.74,9.74,0,0,0,2.48.37A9.08,9.08,0,0,0,205.73,32.14Z" transform="translate(-6.7 -13.63)"/><path d="M223.7,65.14q0,.75-2.75,3.49-4.11,4.09-7.56,4.09a5.56,5.56,0,0,1-2.57-.56q-6.16,8.73-11.58,8.73a6.08,6.08,0,0,1-4.78-2.31,8.17,8.17,0,0,1-2-5.53q0-7.18,9.42-13.85,6.63-4.71,10.92-4.71,4,0,4,4.29,0,5.36-5.64,12.92a4,4,0,0,0,2.1.56,9,9,0,0,0,4.9-2,16.74,16.74,0,0,0,4.58-4.69c.35-.43.6-.65.75-.65S223.7,65,223.7,65.14Zm-7.58-6.27q0-3.78-3.4-3.78-4.25,0-10.36,8.12t-6.11,13.66q0,3.22,3.08,3.22,5,0,11-8.3A4.55,4.55,0,0,1,209,68.71,7.94,7.94,0,0,1,210.8,64c1.22-1.62,2.4-2.42,3.55-2.42q.75,0,1,.93A8.62,8.62,0,0,0,216.12,58.87Z" transform="translate(-6.7 -13.63)"/><path d="M240.5,54.49l-.37.7H234L223.62,73a11,11,0,0,0-1.91,5.13q0,2.1,2.19,2.1,4.26,0,14.34-14.81c.22-.31.41-.47.56-.47a.24.24,0,0,1,.28.28,5,5,0,0,1-.46.75l-2,2.75q-8.78,12.19-13.22,12.2a4.78,4.78,0,0,1-3.66-1.59,5.61,5.61,0,0,1-1.47-4q0-2.81,2.47-7l7.83-13.15h-4.75l.46-.7h4.67l5.45-9.05a10.31,10.31,0,0,0,2.66.37,10.45,10.45,0,0,0,2.71-.37l-5.37,9.05Z" transform="translate(-6.7 -13.63)"/><path d="M341.28,18.85c0,1.49-1.5,3.65-4.5,6.46a63.77,63.77,0,0,1-11,8.09q-.84,2.66-2.47,9.66-2.61,10.95-4.8,15.55A32.53,32.53,0,0,1,311.29,68q-14.55,13.75-32.61,13.76A22.72,22.72,0,0,1,269.54,80a17,17,0,0,0-2.19,7.47A11.55,11.55,0,0,0,270,94.85a.9.9,0,0,1,.28.66c0,.25-.16.37-.47.37-.72,0-1.49-1-2.32-2.89a13.81,13.81,0,0,1-1.24-5.42,17.09,17.09,0,0,1,2.38-8q-9.75-5-9.75-17.3a30.21,30.21,0,0,1,4.66-15.67,48.62,48.62,0,0,1,13.11-14q10.77-7.94,21.31-7.93,5.75,0,9.12,3.22a11.43,11.43,0,0,1,3.38,8.72,24.29,24.29,0,0,1-.83,6.11q6.85-4.57,12.12-7.74a45,45,0,0,1,8.45-12.6Q335.3,17,339.09,17C340.55,17,341.28,17.64,341.28,18.85ZM309.66,36.34a10.44,10.44,0,0,0-3.11-7.88,11.3,11.3,0,0,0-8.18-3q-12.56,0-24.28,13.06T262.36,65.59q0,9.18,6.76,13.06a68.58,68.58,0,0,1,9.1-11.43,8.1,8.1,0,0,1-3.08-6.34,7,7,0,0,1,1.77-4.79,5.55,5.55,0,0,1,4.29-2c2.09,0,3.13,1,3.13,2.89a3.43,3.43,0,0,1-1.17,2.59,3.89,3.89,0,0,1-2.75,1.1c-1.52,0-2.29-.73-2.29-2.19a3,3,0,0,1,.47-1.5,5.2,5.2,0,0,0,.19-.7.25.25,0,0,0-.28-.28c-.53,0-1.08.56-1.64,1.68A7.39,7.39,0,0,0,276,61a7.12,7.12,0,0,0,2.85,5.5q9.38-9.88,29.62-23.09A26.43,26.43,0,0,0,309.66,36.34Zm11.56-.19q-5.46,3.47-11.94,7.84a40.57,40.57,0,0,1-10.8,17.35q-7.71,7.47-14.81,7.47A12,12,0,0,1,279,67.69,66.15,66.15,0,0,0,270,79.16a20.87,20.87,0,0,0,8.67,1.73,32.38,32.38,0,0,0,17-5,45,45,0,0,0,14.09-13.78,53.79,53.79,0,0,0,4.34-7.63q1.57-3.52,5.13-13.27C319.78,39.62,320.45,37.93,321.22,36.15ZM308,44.74l-3.08,2.1Q287.36,59,279.57,67a8.88,8.88,0,0,0,4.2,1q6.53,0,13.66-6.86A42.31,42.31,0,0,0,308,44.74Zm32.37-25.8c0-.74-.43-1.12-1.3-1.12-2.09,0-4.41,1.44-7,4.32a30.75,30.75,0,0,0-5.94,10.1,63.75,63.75,0,0,0,10.19-7.56Q340.4,20.9,340.39,18.94Z" transform="translate(-6.7 -13.63)"/><path d="M351.41,65.24q0,.69-5.13,6.38a57.13,57.13,0,0,1-14.85,11.27L329.14,87q-6.76,12.12-14.13,18-7.61,6.11-13.2,6.11a4.52,4.52,0,0,1-3.2-1.21,4,4,0,0,1-1.28-3q0-9.37,21.6-19.4,1.77-.89,5.31-2.48l.7-.42,8.21-14.6a73,73,0,0,1-7,8.75,6.52,6.52,0,0,1-4.43,2.08,4.31,4.31,0,0,1-3.34-1.64,5.62,5.62,0,0,1-1.42-3.82q0-2.66,3.31-8.3L327.42,55a14.86,14.86,0,0,0,2.47.19,23.54,23.54,0,0,0,3.36-.33l-9.19,14.92q-3.93,6.34-3.92,8.31c0,1.4.64,2.1,1.91,2.1q5,0,15.49-17.87L341.83,55a15.87,15.87,0,0,0,2.61.19,18.62,18.62,0,0,0,3.13-.33q-5.79,9.2-15.68,27a48.06,48.06,0,0,0,9.62-6.36,69.27,69.27,0,0,0,8.78-9.66q.66-.84.84-.84A.24.24,0,0,1,351.41,65.24ZM324.48,85.46c-.5.28-2.26,1.16-5.27,2.66Q298,98.65,298,107.05c0,2.34,1.31,3.5,3.92,3.5q5,0,9.84-5.36t12.13-18.8Z" transform="translate(-6.7 -13.63)"/><path d="M366.77,47.09q0,1.86-5.83,7.4a13.14,13.14,0,0,0-.28,2.51q0,2.72,2.47,8.59a13.05,13.05,0,0,1,1.26,4.94q0,4.2-4.08,7.28a15.64,15.64,0,0,1-9.68,3.08,7,7,0,0,1-5.06-1.8,6.36,6.36,0,0,1-1.89-4.83,11.18,11.18,0,0,1,2.5-6.81q2.49-3.32,5.15-3.31a1.79,1.79,0,0,1,.84.19l3.73-4.57c1.12-1.34,2.62-3.19,4.48-5.55a16.36,16.36,0,0,1,2.43-5.6c1.08-1.56,2.16-2.33,3.22-2.33C366.52,46.28,366.77,46.55,366.77,47.09Zm-6.48,18.4c0-.93,0-1.85-.1-2.77s-.09-2.23-.09-3.94a26.14,26.14,0,0,1,.19-3.5q-2.61,3.31-7.56,9.33a2.29,2.29,0,0,1,.89,1.82q0,2.75-4.53,3.73a5.76,5.76,0,0,0-3.14,2,5,5,0,0,0-1.33,3.29A4.1,4.1,0,0,0,346,78.55a4.74,4.74,0,0,0,3.36,1.26q3.92,0,7.44-4.54A15.73,15.73,0,0,0,360.29,65.49Z" transform="translate(-6.7 -13.63)"/><path d="M386.35,54.49l-.37.7h-6.11L369.47,73a11,11,0,0,0-1.92,5.13c0,1.4.74,2.1,2.2,2.1q4.25,0,14.34-14.81c.22-.31.4-.47.56-.47a.25.25,0,0,1,.28.28,5.51,5.51,0,0,1-.47.75l-2,2.75q-8.77,12.19-13.21,12.2a4.79,4.79,0,0,1-3.67-1.59,5.61,5.61,0,0,1-1.47-4c0-1.87.83-4.2,2.47-7l7.84-13.15h-4.76l.47-.7h4.66l5.46-9.05a10.25,10.25,0,0,0,2.66.37,10.37,10.37,0,0,0,2.7-.37l-5.36,9.05Z" transform="translate(-6.7 -13.63)"/><path d="M408,65.24a5.9,5.9,0,0,1-.84,1.21l-2,2.51q-9.66,11.92-16.57,11.93a7.25,7.25,0,0,1-5.49-2.36,8.26,8.26,0,0,1-2.21-5.9q0-8.4,11.7-14.79,6.16-3.36,10-3.35a4.29,4.29,0,0,1,2.87,1,3.09,3.09,0,0,1,1.19,2.45q0,3.36-4.38,5.71T387.6,68.06c-2.12,3.2-3.17,5.88-3.17,8,0,2.68,1.44,4,4.34,4q7.38,0,18.07-14.39c.37-.49.68-.74.93-.74S408,65.08,408,65.24ZM404,56.58c0-1-.55-1.49-1.63-1.49-1.65,0-3.82,1.15-6.51,3.43A48.2,48.2,0,0,0,388,67.41a36.33,36.33,0,0,0,11.38-4.88Q404,59.38,404,56.58Z" transform="translate(-6.7 -13.63)"/><path d="M459.35,65.19a5.51,5.51,0,0,1-.47.75l-2,2.75q-8.78,12.19-13,12.2a4.51,4.51,0,0,1-3.59-1.64,6.17,6.17,0,0,1-1.4-4.19,11.31,11.31,0,0,1,1.77-5.65c.21-.37,1.35-2,3.4-5Q448,58.83,448,57.1a1.69,1.69,0,0,0-1.91-1.91q-6.16,0-21.13,25.28a13.26,13.26,0,0,0-2.57-.19,23.36,23.36,0,0,0-3.26.19L425.74,70q6.48-10.35,6.48-12.69c0-1.4-.57-2.09-1.72-2.09q-2.56,0-8.4,7.36a126.68,126.68,0,0,0-11.56,17.92,16.08,16.08,0,0,0-2.76-.19,22.58,22.58,0,0,0-3.17.19L411.28,70q6.9-10.81,6.91-13.39c0-.93-.36-1.39-1.08-1.39q-2.3,0-9.49,10c-.31.44-.56.65-.75.65s-.18-.12-.18-.28,1.43-2.21,4.29-5.81,5-5.26,6.5-5.26a3.15,3.15,0,0,1,2.57,1.42,5.48,5.48,0,0,1,1.07,3.38c0,1.8-.91,4.31-2.75,7.51q8.4-12.31,12.5-12.31a3.92,3.92,0,0,1,3.22,1.58,6.19,6.19,0,0,1,1.26,4q0,2.66-2.47,6.76,8.87-12.31,13.29-12.31a4.16,4.16,0,0,1,3.38,1.72,6.51,6.51,0,0,1,1.38,4.2,13.74,13.74,0,0,1-2.29,6.76s-1.37,2-4,6q-2.28,3.36-2.28,5.13a1.69,1.69,0,0,0,1.91,1.92q3.64,0,12.05-11.78l1.45-2,.84-1c.16-.31.31-.47.47-.47A.24.24,0,0,1,459.35,65.19Z" transform="translate(-6.7 -13.63)"/><path d="M582.72,31.29a24.54,24.54,0,0,1-.64,5.31c-.43,1.93-.85,2.89-1.25,2.89a.41.41,0,0,1-.46-.47,1.58,1.58,0,0,1,.09-.42,19.76,19.76,0,0,0,1.24-7,12.92,12.92,0,0,0-3.5-9.44A12.38,12.38,0,0,0,569,18.57q-7.74,0-16,5.08,7,5.61,7,12.69a13.72,13.72,0,0,1-4.8,10.4A16,16,0,0,1,544,51.17a16.29,16.29,0,0,1-5.41-1c-1.93-.67-2.89-1.3-2.89-1.9a.36.36,0,0,1,.37-.28,1.79,1.79,0,0,1,.75.28,11.63,11.63,0,0,0,5.82,1.65,11.48,11.48,0,0,0,9.11-4.57,16.52,16.52,0,0,0,3.8-10.91,14.07,14.07,0,0,0-3.92-9.75q-10.12,7.56-19.22,26.59-5.5,11.52-10.07,16.6a42.29,42.29,0,0,1-12.83,9.19q-9.75,4.75-17.4,4.76A17.91,17.91,0,0,1,481.69,79q-4.15-2.86-4.15-7.16a6.22,6.22,0,0,1,1.42-4.1A4.28,4.28,0,0,1,482.34,66q2.85,0,2.85,3.17a4,4,0,0,1-1,2.71A3,3,0,0,1,481.88,73c-1.62,0-2.4-.84-2.33-2.52,0-.69,0-1-.19-1-.5,0-.75.82-.75,2.47,0,2.59,1.27,4.73,3.8,6.44A16.79,16.79,0,0,0,492,80.89q10.22,0,18.52-7.56a48.07,48.07,0,0,0,6.2-6.76q2.81-3.73,12.22-18.1A125.61,125.61,0,0,1,540,34.24,66.35,66.35,0,0,1,550.91,24q-7.27-6.21-21.36-6.21-19.68,0-34.24,14.23-11.94,11.66-11.94,22a10.7,10.7,0,0,0,3.36,8.3q3.36,3.08,9.09,3.08,9.39,0,19.39-9t10-17.49q0-6.76-7-6.77t-14.9,7.76q-8,7.77-8,14.57a4.13,4.13,0,0,0,1.13,2.89,3.51,3.51,0,0,0,2.63,1.21c.53,0,.79.14.79.42s-.29.37-.89.37a4.62,4.62,0,0,1-3.79-2,7.93,7.93,0,0,1-1.54-5q0-7.27,8-14.17t16.37-6.9q8,0,8,7.42,0,9-10.22,18.28t-20.15,9.24q-6.48,0-10.38-3.9t-3.89-10.42q0-13.2,14.9-24.09a54.6,54.6,0,0,1,33-10.89q13.71,0,23,6.11,8.53-5.32,16.51-5.32a13.7,13.7,0,0,1,10,3.73A13.15,13.15,0,0,1,582.72,31.29Z" transform="translate(-6.7 -13.63)"/><path d="M581.15,65.19q0,1-6.82,9.06-5.51,6.65-8.68,6.64a4.37,4.37,0,0,1-3.51-1.61,6.09,6.09,0,0,1-1.35-4,12.22,12.22,0,0,1,1.49-5.46,63.14,63.14,0,0,1-7.14,8.82,7.25,7.25,0,0,1-4.8,2.29,5.1,5.1,0,0,1-4.15-2.13,8.32,8.32,0,0,1-1.68-5.34q0-9,12.64-15.86,5.55-3.08,9-3.07c1.92,0,2.89.93,2.89,2.79a8.08,8.08,0,0,1-.38,2.1L571,54.86a11,11,0,0,0,2.48.33,21,21,0,0,0,3.26-.33l-8.26,13.67q-4.29,7.17-4.29,9.46c0,1.47.61,2.2,1.82,2.2s3.24-1.43,6-4.28a80.16,80.16,0,0,0,8.36-10.53c.19-.31.36-.47.52-.47A.24.24,0,0,1,581.15,65.19ZM568.3,57.47q0-2.28-2.1-2.28-4.29,0-11.27,8.39t-7,13.57c0,2,.9,3,2.71,3q3.21,0,11.14-10.69Q568.31,60.74,568.3,57.47Z" transform="translate(-6.7 -13.63)"/><path d="M607.35,65.19q0,.38-2.8,3.42-3.56,3.93-6.68,3.93-3.55,0-3.56-4.11a13,13,0,0,1,.56-3.31,32.15,32.15,0,0,0-4.78,5.08q-1.85,2.52-6.36,10.27c-1.65-.13-2.62-.19-2.9-.19-.12,0-1.07.06-2.84.19l7.65-12.41q5.73-9.33,5.74-11.57c0-.87-.36-1.3-1.08-1.3q-2.61,0-9.49,10c-.28.43-.53.65-.75.65s-.18-.12-.18-.28a.68.68,0,0,1,.18-.37l.85-1.17q7.19-9.58,9.76-9.58,3.74,0,3.74,4.8,0,3.59-3.83,9.52a38,38,0,0,1,4.62-4.58,23.51,23.51,0,0,1,4.41-7q2.63-2.79,4.73-2.79c1,0,1.45.42,1.45,1.25q0,2.25-6.48,6.4l-3.08,1.91-.56.46a12.62,12.62,0,0,0-.66,3.55Q595,72,598,72q3.64,0,7.94-6c.63-.69,1-1,1.17-1A.24.24,0,0,1,607.35,65.19Z" transform="translate(-6.7 -13.63)"/><path d="M624,54.49l-.38.7h-6.11L607.13,73a11,11,0,0,0-1.91,5.13q0,2.1,2.19,2.1,4.26,0,14.34-14.81c.22-.31.41-.47.56-.47a.24.24,0,0,1,.28.28,5,5,0,0,1-.46.75l-2,2.75q-8.77,12.19-13.22,12.2a4.78,4.78,0,0,1-3.66-1.59,5.61,5.61,0,0,1-1.47-4q0-2.81,2.47-7l7.83-13.15h-4.75l.46-.7h4.67l5.45-9.05a10.31,10.31,0,0,0,2.66.37,10.45,10.45,0,0,0,2.71-.37l-5.37,9.05Z" transform="translate(-6.7 -13.63)"/><path d="M659.48,65.19q0,1-6.77,9.06-5.57,6.65-8.74,6.64a4.49,4.49,0,0,1-3.52-1.64,5.88,5.88,0,0,1-1.43-4,8.77,8.77,0,0,1,.87-3.89,69.46,69.46,0,0,1,4.5-7.12q3.78-5.6,3.78-7.13c0-1.28-.67-1.91-2-1.91q-6.81,0-21,25.28c-1.52-.13-2.44-.19-2.75-.19a23,23,0,0,0-3.08.19L626.62,69q6.2-9.9,6.2-12.37c0-.93-.39-1.39-1.17-1.39q-2.39,0-9.39,10c-.28.4-.5.62-.66.65s-.25-.09-.28-.28a.69.69,0,0,1,.19-.37l.89-1.17q7.14-9.58,9.62-9.58a3.34,3.34,0,0,1,2.71,1.44,5.45,5.45,0,0,1,1.12,3.45c0,2-1.16,4.76-3.5,8.31a81.53,81.53,0,0,1,8.47-10.41q3-2.79,5.48-2.79a4.33,4.33,0,0,1,3.45,1.67,6.3,6.3,0,0,1,1.4,4.16q0,3.12-4.29,9.56t-4.39,8.39a1.7,1.7,0,0,0,1.92,1.92q4.15,0,14.34-14.81c.16-.31.31-.47.47-.47A.25.25,0,0,1,659.48,65.19Z" transform="translate(-6.7 -13.63)"/><path d="M682.51,65.24a5.9,5.9,0,0,1-.84,1.21l-2,2.51Q670,80.88,663.09,80.89a7.25,7.25,0,0,1-5.49-2.36,8.27,8.27,0,0,1-2.22-5.9q0-8.4,11.71-14.79,6.17-3.36,10-3.35a4.29,4.29,0,0,1,2.87,1,3.09,3.09,0,0,1,1.19,2.45q0,3.36-4.39,5.71t-14.64,4.41c-2.12,3.2-3.17,5.88-3.17,8,0,2.68,1.44,4,4.34,4q7.38,0,18.07-14.39c.37-.49.68-.74.93-.74A.25.25,0,0,1,682.51,65.24Zm-3.94-8.66c0-1-.55-1.49-1.64-1.49-1.65,0-3.81,1.15-6.5,3.43a48.2,48.2,0,0,0-7.91,8.89,36.33,36.33,0,0,0,11.38-4.88Q678.57,59.38,678.57,56.58Z" transform="translate(-6.7 -13.63)"/><path d="M708.62,65.19q0,.38-2.81,3.42-3.54,3.93-6.68,3.93-3.55,0-3.55-4.11a13,13,0,0,1,.56-3.31,32.15,32.15,0,0,0-4.78,5.08q-1.85,2.52-6.37,10.27c-1.65-.13-2.61-.19-2.89-.19-.12,0-1.07.06-2.85.19l7.65-12.41q5.75-9.33,5.74-11.57c0-.87-.36-1.3-1.07-1.3q-2.62,0-9.49,10c-.28.43-.53.65-.75.65a.25.25,0,0,1-.19-.28.69.69,0,0,1,.19-.37l.84-1.17q7.2-9.58,9.77-9.58,3.73,0,3.73,4.8,0,3.59-3.82,9.52a36.61,36.61,0,0,1,4.62-4.58,23.69,23.69,0,0,1,4.4-7q2.64-2.79,4.74-2.79c1,0,1.44.42,1.44,1.25q0,2.25-6.48,6.4l-3.08,1.91-.56.46a12.92,12.92,0,0,0-.65,3.55q0,3.91,2.94,3.92,3.64,0,7.95-6c.62-.69,1-1,1.17-1A.25.25,0,0,1,708.62,65.19Z" transform="translate(-6.7 -13.63)"/><path d="M723.83,47.09q0,1.86-5.83,7.4a14,14,0,0,0-.28,2.51q0,2.72,2.48,8.59a13.05,13.05,0,0,1,1.26,4.94q0,4.2-4.09,7.28a15.61,15.61,0,0,1-9.67,3.08,7,7,0,0,1-5.06-1.8,6.36,6.36,0,0,1-1.89-4.83,11.23,11.23,0,0,1,2.49-6.81q2.49-3.32,5.16-3.31a1.79,1.79,0,0,1,.84.19L713,59.76q1.68-2,4.47-5.55a16.36,16.36,0,0,1,2.43-5.6c1.09-1.56,2.16-2.33,3.22-2.33C723.59,46.28,723.83,46.55,723.83,47.09Zm-6.48,18.4c0-.93,0-1.85-.09-2.77s-.1-2.23-.1-3.94a27.94,27.94,0,0,1,.19-3.5q-2.61,3.31-7.55,9.33a2.28,2.28,0,0,1,.88,1.82q0,2.75-4.52,3.73a5.75,5.75,0,0,0-3.15,2,5,5,0,0,0-1.33,3.29A4.1,4.1,0,0,0,703,78.55a4.74,4.74,0,0,0,3.36,1.26q3.92,0,7.44-4.54A15.67,15.67,0,0,0,717.35,65.49Z" transform="translate(-6.7 -13.63)"/><path d="M833,20.86q0,3.3-8.14,12.73A98.73,98.73,0,0,1,809,48.66q-5.84,12.77-12,18.65T780.24,75.9q18.56,4.93,22.22,5.75a31.91,31.91,0,0,0,7,.82A12.76,12.76,0,0,0,818.24,79a1.85,1.85,0,0,1,.52-.23A.48.48,0,0,1,819,79c0,.5-.83,1.33-2.48,2.48q-4.56,3.13-13.29,3.14A61.19,61.19,0,0,1,791,83.36q-5.91-1.22-18-5.09a82.24,82.24,0,0,1-16,1.54q-14.64,0-14.64-4.47,0-4.2,11.19-4.2,8.67,0,25.88,4.48a26.71,26.71,0,0,0,9.12-6q4-3.94,10.06-13.09-13.9,12.14-26,12.13c-5.47,0-9.84-1.61-13.08-4.85s-4.88-7.6-4.88-13.11q0-12.63,12-24t25.3-11.34q6.15,0,9.82,3.18a10.76,10.76,0,0,1,3.66,8.58q0,9.56-9,19.78T779,57.19a8.56,8.56,0,0,1-6-2.24,7.14,7.14,0,0,1-2.45-5.5,6.51,6.51,0,0,1,1.56-4.36,4.73,4.73,0,0,1,3.71-1.85c1.92,0,2.89.95,2.89,2.85a3.84,3.84,0,0,1-1.12,2.73A3.41,3.41,0,0,1,775.12,50q-2.28,0-2.19-2.1,0-1.35-.33-1.35c-.68,0-1,1-1,2.89a6.26,6.26,0,0,0,2.21,4.9,8.07,8.07,0,0,0,5.53,1.95q7.7,0,16.39-10t8.7-19a10.35,10.35,0,0,0-3.29-7.9,11.75,11.75,0,0,0-8.41-3.11q-12.37,0-23.68,12.36T757.72,54.39q0,6.3,4,9.89t11.08,3.59a26.77,26.77,0,0,0,12-3q6-3,14.77-10.4,7.32-12.27,10.63-17a77.29,77.29,0,0,1,7.6-9.23q8.64-9.06,13.2-9Q833,19.18,833,20.86Zm-61.63,57Q755,72.63,749.14,72.63c-4.08,0-6.11.9-6.11,2.71Q743,79,757.35,79A78.11,78.11,0,0,0,771.38,77.81Zm60.83-56.95c0-.69-.37-1-1.12-1q-3.45,0-9.47,7-5.36,6.3-11.94,20.39a118.3,118.3,0,0,0,15.26-15Q832.21,23.74,832.21,20.86Z" transform="translate(-6.7 -13.63)"/><path d="M831.83,54.49l-.37.7h-6.11L814.94,73A11.07,11.07,0,0,0,813,78.09c0,1.4.73,2.1,2.2,2.1q4.24,0,14.34-14.81c.21-.31.4-.47.56-.47a.25.25,0,0,1,.28.28,6.93,6.93,0,0,1-.47.75l-2,2.75q-8.77,12.19-13.21,12.2a4.79,4.79,0,0,1-3.67-1.59,5.61,5.61,0,0,1-1.47-4q0-2.81,2.47-7l7.84-13.15h-4.76l.47-.7h4.66l5.46-9.05a10.25,10.25,0,0,0,2.66.37,10.37,10.37,0,0,0,2.7-.37l-5.36,9.05Z" transform="translate(-6.7 -13.63)"/><path d="M872.26,32.61q-17.49,27.8-22.07,35.54t-4.61,9.94c0,1.4.64,2.1,1.91,2.1q4.26,0,14.43-14.81c.19-.31.36-.47.52-.47a.24.24,0,0,1,.28.28,5.51,5.51,0,0,1-.47.75l-2,2.75q-8.82,12.19-13,12.2a4.39,4.39,0,0,1-3.51-1.61,6.22,6.22,0,0,1-1.35-4.13A13.24,13.24,0,0,1,844,69.32q-8.16,11.57-12.13,11.57a5.1,5.1,0,0,1-4.15-2.13,8.32,8.32,0,0,1-1.68-5.34q0-7.69,9.56-13.94,7.61-5,11.94-5c1.93,0,2.89.93,2.89,2.79a6.83,6.83,0,0,1-.79,2.94l16.65-27.89a10.5,10.5,0,0,0,3,.47C869.61,32.8,870.58,32.73,872.26,32.61Zm-22.48,25c0-1.65-.77-2.47-2.29-2.47q-4.2,0-11.08,8.37t-6.88,13.5c0,2.08.86,3.13,2.57,3.13q3.72,0,12.82-13Q849.78,60.22,849.78,57.66Z" transform="translate(-6.7 -13.63)"/><path d="M869.87,74.33a5.71,5.71,0,0,1-1.91,4,5.54,5.54,0,0,1-3.9,1.92c-1.35,0-2-.71-2-2.12a5.36,5.36,0,0,1,2-3.81,5.93,5.93,0,0,1,4-1.91Q869.87,72.44,869.87,74.33Z" transform="translate(-6.7 -13.63)"/></svg>